<svg xmlns="http://www.w3.org/2000/svg" viewBox="0 0 45.73 45.73">
    <defs>
        <style>.cls-1{fill:#fff;opacity:0.6;}</style>
    </defs>
    <polygon class="cls-1"
             points="32.66 19.6 32.66 13.06 39.2 13.06 39.2 6.53 45.73 6.53 45.73 0 39.2 0 32.66 0 26.13 0 26.13 6.53 19.6 6.53 13.06 6.53 13.06 13.06 6.53 13.06 6.53 19.6 0 19.6 0 26.13 6.53 26.13 6.53 32.66 13.06 32.66 13.06 39.2 19.6 39.2 26.13 39.2 26.13 45.73 32.66 45.73 39.2 45.73 45.73 45.73 45.73 39.2 39.2 39.2 39.2 32.66 32.66 32.66 32.66 26.13 26.13 26.13 26.13 19.6 32.66 19.6"/>
</svg>