<svg xmlns="http://www.w3.org/2000/svg" viewBox="0 0 1730.58 360" preserveAspectRatio="none">
    <defs>
        <style>.cls-1{fill:#0f152f;}</style>
    </defs>
    <polygon class="cls-1"
             points="1720.58 20 1720.58 10 1710.58 10 1710.58 0 19.97 0 19.97 10 10 10 10 20 0 20 0 30 0 40 0 50 0 60 0 70 0 80 0 90 0 100 0 110 0 120 0 130 0 140 0 150 0 160 0 170 0 180 0 190 0 200 0 210 0 220 0 230 0 240 0 250 0 260 0 270 0 280 0 290 0 300 0 310 0 320 0 330 0 340 10 340 10 350 19.97 350 19.97 360 1710.58 360 1710.58 350 1720.58 350 1720.58 340 1730.58 340 1730.58 330 1730.58 320 1730.58 310 1730.58 300 1730.58 290 1730.58 280 1730.58 270 1730.58 260 1730.58 250 1730.58 240 1730.58 230 1730.58 220 1730.58 210 1730.58 200 1730.58 190 1730.58 180 1730.58 170 1730.58 160 1730.58 150 1730.58 140 1730.58 130 1730.58 120 1730.58 110 1730.58 100 1730.58 90 1730.58 80 1730.58 70 1730.58 60 1730.58 50 1730.58 40 1730.58 30 1730.58 20 1720.58 20"/>
</svg>