<svg xmlns="http://www.w3.org/2000/svg" viewBox="0 0 138.6 37.2" preserveAspectRatio="none">
    <defs>
        <style>.cls-1{fill:#fff;}.cls-2{fill:#b96227;}.cls-3{fill:#F48B2D;}</style>
    </defs>
    <polygon class="cls-1"
             points="134.52 8.15 134.52 4.08 130.44 4.08 130.44 0 126.37 0 122.29 0 118.22 0 114.14 0 110.06 0 105.99 0 101.91 0 97.83 0 93.76 0 89.68 0 85.6 0 81.53 0 77.45 0 73.38 0 69.3 0 65.22 0 61.15 0 57.07 0 52.99 0 48.92 0 44.84 0 40.76 0 36.69 0 32.61 0 28.54 0 24.46 0 20.38 0 16.31 0 12.23 0 8.15 0 8.15 4.08 12.23 4.08 12.23 8.15 8.15 8.15 8.15 4.08 4.08 4.08 4.08 8.15 0 8.15 0 12.23 0 16.31 0 20.38 0 24.46 0 28.54 4.08 28.54 4.08 32.61 8.15 32.61 8.15 36.69 12.23 36.69 16.31 36.69 20.38 36.69 24.46 36.69 28.54 36.69 32.61 36.69 36.69 36.69 40.76 36.69 44.84 36.69 48.92 36.69 52.99 36.69 57.07 36.69 61.15 36.69 65.22 36.69 69.3 36.69 73.38 36.69 77.45 36.69 81.53 36.69 85.6 36.69 89.68 36.69 93.76 36.69 97.83 36.69 101.91 36.69 105.99 36.69 110.06 36.69 114.14 36.69 118.22 36.69 122.29 36.69 126.37 36.69 130.44 36.69 130.44 32.61 134.52 32.61 134.52 28.54 138.6 28.54 138.6 24.46 138.6 20.38 138.6 16.31 138.6 12.23 138.6 8.15 134.52 8.15"/>
    <polygon class="cls-2"
             points="130.44 8.15 130.44 4.08 126.37 4.08 122.29 4.08 118.22 4.08 114.14 4.08 110.06 4.08 105.99 4.08 101.91 4.08 97.83 4.08 93.76 4.08 89.68 4.08 85.6 4.08 81.53 4.08 77.45 4.08 73.38 4.08 69.3 4.08 65.22 4.08 61.15 4.08 57.07 4.08 52.99 4.08 48.92 4.08 44.84 4.08 40.76 4.08 36.69 4.08 32.61 4.08 28.54 4.08 24.46 4.08 20.38 4.08 16.31 4.08 12.23 4.08 8.15 4.08 8.15 8.15 4.08 8.15 4.08 12.23 4.08 16.31 4.08 20.38 4.08 24.46 4.08 28.54 8.15 28.54 8.15 32.61 12.23 32.61 16.31 32.61 20.38 32.61 24.46 32.61 28.54 32.61 32.61 32.61 36.69 32.61 40.76 32.61 44.84 32.61 48.92 32.61 52.99 32.61 57.07 32.61 61.15 32.61 65.22 32.61 69.3 32.61 73.38 32.61 77.45 32.61 81.53 32.61 85.6 32.61 89.68 32.61 93.76 32.61 97.83 32.61 101.91 32.61 105.99 32.61 110.06 32.61 114.14 32.61 118.22 32.61 122.29 32.61 126.37 32.61 130.44 32.61 130.44 28.54 134.52 28.54 134.52 24.46 134.52 20.38 134.52 16.31 134.52 12.23 134.52 8.15 130.44 8.15"/>
    <polygon class="cls-3"
             points="126.37 12.23 126.37 8.15 122.29 8.15 118.22 8.15 114.14 8.15 110.06 8.15 105.99 8.15 101.91 8.15 97.83 8.15 93.76 8.15 89.68 8.15 85.6 8.15 81.53 8.15 77.45 8.15 73.38 8.15 69.3 8.15 65.22 8.15 61.15 8.15 57.07 8.15 52.99 8.15 48.92 8.15 44.84 8.15 40.76 8.15 36.69 8.15 32.61 8.15 28.54 8.15 24.46 8.15 20.38 8.15 16.31 8.15 12.23 8.15 12.23 12.23 8.15 12.23 8.15 16.31 8.15 20.38 8.15 24.46 12.23 24.46 12.23 28.54 16.31 28.54 20.38 28.54 24.46 28.54 28.54 28.54 32.61 28.54 36.69 28.54 40.76 28.54 44.84 28.54 48.92 28.54 52.99 28.54 57.07 28.54 61.15 28.54 65.22 28.54 69.3 28.54 73.38 28.54 77.45 28.54 81.53 28.54 85.6 28.54 89.68 28.54 93.76 28.54 97.83 28.54 101.91 28.54 105.99 28.54 110.06 28.54 114.14 28.54 118.22 28.54 122.29 28.54 126.37 28.54 126.37 24.46 130.44 24.46 130.44 20.38 130.44 16.31 130.44 12.23 126.37 12.23"/>
    <path class="cls-1"
          d="M196.78,89.49V91.3h1.81v10.87h-1.81V104H180.46V89.49ZM195,94.92V93.11H184.09v1.81Zm0,5.45V98.56H184.09v1.81Z"
          transform="translate(-148.7 -78.4)"/>
    <path class="cls-1"
          d="M216.19,89.61V91.4H218v10.78h-1.79V104h-14.4v-1.82H200V91.4h1.8V89.61Zm-1.81,10.78V93.2H203.6v7.19Z"
          transform="translate(-148.7 -78.4)"/>
    <path class="cls-1"
          d="M233.09,89.7h3.58V104h-5.36v-1.8h-1.79v-1.79h-1.8V98.63h-1.78V96.84h-1.79V95.06h-1.79V104h-3.57V89.7h5.36v1.77h1.79v1.8h1.78v1.79h1.8v1.78h1.79v1.79h1.78Z"
          transform="translate(-148.7 -78.4)"/>
    <path class="cls-1" d="M253.74,89.63v1.79h1.8v10.76h-1.8V104H237.58V89.63ZM252,100.39V93.21H241.17v7.18Z"
          transform="translate(-148.7 -78.4)"/>
    <polygon class="cls-2"
             points="134.52 8.67 134.52 4.59 130.44 4.59 130.44 0.51 126.37 0.51 122.29 0.51 118.22 0.51 114.14 0.51 110.06 0.51 105.99 0.51 101.91 0.51 97.83 0.51 93.76 0.51 89.68 0.51 85.6 0.51 81.53 0.51 77.45 0.51 73.38 0.51 69.3 0.51 65.22 0.51 61.15 0.51 57.07 0.51 52.99 0.51 48.92 0.51 44.84 0.51 40.76 0.51 36.69 0.51 32.61 0.51 28.54 0.51 24.46 0.51 20.38 0.51 16.31 0.51 12.23 0.51 8.15 0.51 8.15 4.59 12.23 4.59 12.23 8.67 8.15 8.67 8.15 4.59 4.08 4.59 4.08 8.67 0 8.67 0 12.74 0 16.82 0 20.9 0 24.97 0 29.05 4.08 29.05 4.08 33.13 8.15 33.13 8.15 37.2 12.23 37.2 16.31 37.2 20.38 37.2 24.46 37.2 28.54 37.2 32.61 37.2 36.69 37.2 40.76 37.2 44.84 37.2 48.92 37.2 52.99 37.2 57.07 37.2 61.15 37.2 65.22 37.2 69.3 37.2 73.38 37.2 77.45 37.2 81.53 37.2 85.6 37.2 89.68 37.2 93.76 37.2 97.83 37.2 101.91 37.2 105.99 37.2 110.06 37.2 114.14 37.2 118.22 37.2 122.29 37.2 126.37 37.2 130.44 37.2 130.44 33.13 134.52 33.13 134.52 29.05 138.6 29.05 138.6 24.97 138.6 20.9 138.6 16.82 138.6 12.74 138.6 8.67 134.52 8.67"/>
    <polygon class="cls-3"
             points="130.44 8.67 130.44 4.59 126.37 4.59 122.29 4.59 118.22 4.59 114.14 4.59 110.06 4.59 105.99 4.59 101.91 4.59 97.83 4.59 93.76 4.59 89.68 4.59 85.6 4.59 81.53 4.59 77.45 4.59 73.38 4.59 69.3 4.59 65.22 4.59 61.15 4.59 57.07 4.59 52.99 4.59 48.92 4.59 44.84 4.59 40.76 4.59 36.69 4.59 32.61 4.59 28.54 4.59 24.46 4.59 20.38 4.59 16.31 4.59 12.23 4.59 8.15 4.59 8.15 8.67 4.08 8.67 4.08 12.74 4.08 16.82 4.08 20.9 4.08 24.97 4.08 29.05 8.15 29.05 8.15 33.13 12.23 33.13 16.31 33.13 20.38 33.13 24.46 33.13 28.54 33.13 32.61 33.13 36.69 33.13 40.76 33.13 44.84 33.13 48.92 33.13 52.99 33.13 57.07 33.13 61.15 33.13 65.22 33.13 69.3 33.13 73.38 33.13 77.45 33.13 81.53 33.13 85.6 33.13 89.68 33.13 93.76 33.13 97.83 33.13 101.91 33.13 105.99 33.13 110.06 33.13 114.14 33.13 118.22 33.13 122.29 33.13 126.37 33.13 130.44 33.13 130.44 29.05 134.52 29.05 134.52 24.97 134.52 20.9 134.52 16.82 134.52 12.74 134.52 8.67 130.44 8.67"/>
</svg>