<svg xmlns="http://www.w3.org/2000/svg" viewBox="0 0 260.8 69.03" preserveAspectRatio="none">
    <defs>
        <style>.cls-1{fill:#b96227;}.cls-2{fill:#f29e43;}.cls-3{fill:#fff;}</style>
    </defs>
    <polygon class="cls-3"
             points="253.13 15.34 253.13 7.67 245.46 7.67 245.46 0 237.79 0 230.12 0 222.45 0 214.78 0 207.1 0 199.43 0 191.76 0 184.09 0 176.42 0 168.75 0 161.08 0 153.41 0 145.74 0 138.07 0 130.4 0 122.73 0 115.06 0 107.39 0 99.72 0 92.05 0 84.38 0 76.71 0 69.03 0 61.36 0 53.69 0 46.02 0 38.35 0 30.68 0 23.01 0 15.34 0 15.34 7.67 23.01 7.67 23.01 15.34 15.34 15.34 15.34 7.67 7.67 7.67 7.67 15.34 0 15.34 0 23.01 0 30.68 0 38.35 0 46.02 0 53.69 7.67 53.69 7.67 61.36 15.34 61.36 15.34 69.03 23.01 69.03 30.68 69.03 38.35 69.03 46.02 69.03 53.69 69.03 61.36 69.03 69.03 69.03 76.71 69.03 84.38 69.03 92.05 69.03 99.72 69.03 107.39 69.03 115.06 69.03 122.73 69.03 130.4 69.03 138.07 69.03 145.74 69.03 153.41 69.03 161.08 69.03 168.75 69.03 176.42 69.03 184.09 69.03 191.76 69.03 199.43 69.03 207.1 69.03 214.78 69.03 222.45 69.03 230.12 69.03 237.79 69.03 245.46 69.03 245.46 61.36 253.13 61.36 253.13 53.69 260.8 53.69 260.8 46.02 260.8 38.35 260.8 30.68 260.8 23.01 260.8 15.34 253.13 15.34"/>
    <polygon class="cls-1"
             points="245.46 15.34 245.46 7.67 237.79 7.67 230.12 7.67 222.45 7.67 214.78 7.67 207.1 7.67 199.43 7.67 191.76 7.67 184.09 7.67 176.42 7.67 168.75 7.67 161.08 7.67 153.41 7.67 145.74 7.67 138.07 7.67 130.4 7.67 122.73 7.67 115.06 7.67 107.39 7.67 99.72 7.67 92.05 7.67 84.38 7.67 76.71 7.67 69.03 7.67 61.36 7.67 53.69 7.67 46.02 7.67 38.35 7.67 30.68 7.67 23.01 7.67 15.34 7.67 15.34 15.34 7.67 15.34 7.67 23.01 7.67 30.68 7.67 38.35 7.67 46.02 7.67 53.69 15.34 53.69 15.34 61.36 23.01 61.36 30.68 61.36 38.35 61.36 46.02 61.36 53.69 61.36 61.36 61.36 69.03 61.36 76.71 61.36 84.38 61.36 92.05 61.36 99.72 61.36 107.39 61.36 115.06 61.36 122.73 61.36 130.4 61.36 138.07 61.36 145.74 61.36 153.41 61.36 161.08 61.36 168.75 61.36 176.42 61.36 184.09 61.36 191.76 61.36 199.43 61.36 207.1 61.36 214.78 61.36 222.45 61.36 230.12 61.36 237.79 61.36 245.46 61.36 245.46 53.69 253.13 53.69 253.13 46.02 253.13 38.35 253.13 30.68 253.13 23.01 253.13 15.34 245.46 15.34"/>
    <polygon class="cls-2"
             points="237.79 23.01 237.79 15.34 230.12 15.34 222.45 15.34 214.78 15.34 207.1 15.34 199.43 15.34 191.76 15.34 184.09 15.34 176.42 15.34 168.75 15.34 161.08 15.34 153.41 15.34 145.74 15.34 138.07 15.34 130.4 15.34 122.73 15.34 115.06 15.34 107.39 15.34 99.72 15.34 92.05 15.34 84.38 15.34 76.71 15.34 69.03 15.34 61.36 15.34 53.69 15.34 46.02 15.34 38.35 15.34 30.68 15.34 23.01 15.34 23.01 23.01 15.34 23.01 15.34 30.68 15.34 38.35 15.34 46.02 23.01 46.02 23.01 53.69 30.68 53.69 38.35 53.69 46.02 53.69 53.69 53.69 61.36 53.69 69.03 53.69 76.71 53.69 84.38 53.69 92.05 53.69 99.72 53.69 107.39 53.69 115.06 53.69 122.73 53.69 130.4 53.69 138.07 53.69 145.74 53.69 153.41 53.69 161.08 53.69 168.75 53.69 176.42 53.69 184.09 53.69 191.76 53.69 199.43 53.69 207.1 53.69 214.78 53.69 222.45 53.69 230.12 53.69 237.79 53.69 237.79 46.02 245.46 46.02 245.46 38.35 245.46 30.68 245.46 23.01 237.79 23.01"/>
</svg>