<svg width="24" height="24" viewBox="0 0 24 24" fill="none" xmlns="http://www.w3.org/2000/svg">
  <path fill-rule="evenodd" clip-rule="evenodd" d="M12 0C5.34545 0 0 5.34545 0 12C0 18.6545 5.34545 24 12 24C18.6545 24 24 18.6545 24 12C24 5.34545 18.6545 0 12 0ZM11.9999 21.8181C6.54536 21.8181 2.18173 17.4545 2.18173 11.9999C2.18173 6.54536 6.54536 2.18173 11.9999 2.18173C17.4545 2.18173 21.8181 6.54536 21.8181 11.9999C21.8181 17.4545 17.4545 21.8181 11.9999 21.8181ZM16.0364 16.0362C16.4728 15.5998 16.4728 14.9453 16.0364 14.5089L13.091 11.5635V5.45436C13.091 4.79981 12.6546 4.36345 12 4.36345C11.3455 4.36345 10.9091 4.79981 10.9091 5.45436V11.9998C10.9091 12.3271 11.0182 12.5453 11.2364 12.7635L14.5091 16.0362C14.7273 16.2544 14.9455 16.3635 15.2728 16.3635C15.6 16.3635 15.8182 16.2544 16.0364 16.0362Z" fill="#768299" />
</svg>