<svg xmlns="http://www.w3.org/2000/svg" viewBox="0 0 38.23 38.23">
    <defs>
        <style>.cls-1{fill:none;stroke:#8a98b4;stroke-miterlimit:10;stroke-width:4px;}</style>
    </defs>
    <path class="cls-1"
          d="M167.09,157.52l-3-3v-4.18a3.51,3.51,0,0,0-3.51-3.51h-4.18l-3-3a3.51,3.51,0,0,0-5,0l-3,3h-4.18a3.51,3.51,0,0,0-3.51,3.51v4.18l-3,3a3.51,3.51,0,0,0,0,5l3,3v4.18a3.51,3.51,0,0,0,3.51,3.51h4.18l3,3a3.51,3.51,0,0,0,5,0l3-3h4.18a3.51,3.51,0,0,0,3.51-3.51v-4.18l3-3A3.51,3.51,0,0,0,167.09,157.52Z"
          transform="translate(-131.88 -140.88)"/>
</svg>