<svg xmlns="http://www.w3.org/2000/svg" viewBox="0 0 87.22 46.18">
    <defs>
        <style>.cls-1{fill:#fff;}.cls-2{fill:#f29e43;}</style>
    </defs>
    <path class="cls-1"
          d="M150,74.17a10.52,10.52,0,1,0,10.53,10.52A10.53,10.53,0,0,0,150,74.17Zm0,15a4.51,4.51,0,1,1,4.51-4.51A4.52,4.52,0,0,1,150,89.2Z"
          transform="translate(-115.39 -61.91)"/>
    <path class="cls-1"
          d="M115.39,104.7v3.39L134,100.66a3.88,3.88,0,0,0,2.44-3.6V93.67l-18.61,7.43A3.89,3.89,0,0,0,115.39,104.7Z"
          transform="translate(-115.39 -61.91)"/>
    <path class="cls-2"
          d="M170.53,75a9,9,0,0,0-5,11.5L171,84.33a2.91,2.91,0,0,1,1.63-3.72,2.8,2.8,0,0,1,3.66,1.6L181.86,80A8.67,8.67,0,0,0,170.53,75Z"
          transform="translate(-115.39 -61.91)"/>
    <path class="cls-1"
          d="M173.45,85.05a2.91,2.91,0,0,1-1.63,3.72,2.78,2.78,0,0,1-3.66-1.61l-5.54,2.22a8.66,8.66,0,0,0,11.33,5,9,9,0,0,0,5-11.5Z"
          transform="translate(-115.39 -61.91)"/>
    <path class="cls-1" d="M196.69,95h2.63a3.28,3.28,0,0,0,3.29-3.28V81.51l-5.92,2.14Z"
          transform="translate(-115.39 -61.91)"/>
    <path class="cls-1"
          d="M202.61,79.67A8.31,8.31,0,0,0,191.82,75l-.65.29V65.2a3.29,3.29,0,0,0-3.29-3.29h-2.63V91.68A3.28,3.28,0,0,0,188.54,95h2.63V84.2Z"
          transform="translate(-115.39 -61.91)"/>
    <path class="cls-1"
          d="M136.43,74.14H125.64a10.52,10.52,0,1,0,10.8,10.52A10.43,10.43,0,0,0,134,77.9,4.11,4.11,0,0,0,136.43,74.14Zm-10.51,15a4.51,4.51,0,1,1,4.51-4.51A4.53,4.53,0,0,1,125.92,89.18Z"
          transform="translate(-115.39 -61.91)"/>
</svg>